<?xml version="1.0" encoding="utf-8"?>
<!-- Generator: Adobe Illustrator 16.0.0, SVG Export Plug-In . SVG Version: 6.00 Build 0)  -->
<!DOCTYPE svg PUBLIC "-//W3C//DTD SVG 1.1//EN" "http://www.w3.org/Graphics/SVG/1.1/DTD/svg11.dtd">
<svg version="1.1" id="Capa_1" xmlns="http://www.w3.org/2000/svg" xmlns:xlink="http://www.w3.org/1999/xlink" x="0px" y="0px"
	 width="48px" height="48px" viewBox="0 0 48 48" enable-background="new 0 0 48 48" xml:space="preserve">
<g>
	<g>
		<path d="M42.291,0L31.99,11.352h-5.834l5.166-9.188c0.244-0.363,0.662-0.811,1.264-1.354C33.189,0.27,34.035,0,35.117,0H42.291z"
			/>
	</g>
	<path d="M38.859,6.582l-5.461,5.617c3.777,2.848,6.217,7.357,6.217,12.436c0,8.602-6.994,15.58-15.617,15.58
		S8.383,33.236,8.383,24.635S15.375,9.061,23.998,9.061c0.531,0,1.057,0.029,1.574,0.082l4.043-7.189
		c-1.801-0.445-3.682-0.68-5.617-0.68c-12.936,0-23.422,10.461-23.422,23.361C0.576,37.539,11.062,48,23.998,48
		s23.426-10.461,23.426-23.365C47.424,17.361,44.088,10.861,38.859,6.582z"/>
</g>
</svg>
